<?xml version="1.0" encoding="utf-8"?>
<svg version="1.1" xmlns="http://www.w3.org/2000/svg" xmlns:xlink="http://www.w3.org/1999/xlink" x="0px" y="0px"
	 viewBox="0 0 1609 465" style="enable-background:new 0 0 1609 465;" xml:space="preserve">
<style type="text/css">
	.st0{fill:#0C8697;}
	.st1{fill:#1AAAC0;}
	.st2{fill:#333838;}
	.st3{fill:#53C1DD;}
	.st4{fill:#efefef;stroke:#efefef;stroke-miterlimit:10;}
</style>
<g id="Logo">
	<path id="XMLID_2_" class="st0" d="M155,232.5c0-42.8-34.7-77.5-77.5-77.5S0,189.7,0,232.5S34.7,310,77.5,310s77.5,34.7,77.5,77.5
		s34.7,77.5,77.5,77.5s77.5-34.7,77.5-77.5S275.3,310,232.5,310S155,275.3,155,232.5z"/>
	<path id="XMLID_3_" class="st1" d="M387.5,310c42.8,0,77.5-34.7,77.5-77.5S430.3,155,387.5,155S310,189.7,310,232.5
		S275.3,310,232.5,310S155,344.7,155,387.5s34.7,77.5,77.5,77.5s77.5-34.7,77.5-77.5S344.7,310,387.5,310z"/>
	<circle id="XMLID_1_" class="st2" cx="232.5" cy="232.5" r="54.8"/>
	<path id="XMLID_4_" class="st3" d="M310,77.5C310,34.7,275.3,0,232.5,0S155,34.7,155,77.5s34.7,77.5,77.5,77.5s77.5,34.7,77.5,77.5
		s34.7,77.5,77.5,77.5s77.5-34.7,77.5-77.5S430.3,155,387.5,155S310,120.3,310,77.5z"/>
</g>
<g id="Font">
	<g id="XMLID_5_">
		<path id="XMLID_6_" class="st4" d="M590.9,177.6c-7,14-15.7,27.4-24.9,40v133.8h-13.4V234.7c-10.9,12.6-22.7,24.1-34.4,33.6
			c-2.2-2.5-7.8-7-11.2-9.2c28-20.4,54.6-52.6,71.1-85.4L590.9,177.6z M591.2,139.5v25.8h-13.4v-25.8h-70.3v-12.9h70.3V97.8h13.4
			v28.8h77.6V97.8h13.4v28.8h69.2v12.9h-69.2v28h-13.4v-28H591.2z M725,334.1c14,0,16.2-7.6,17.9-44.5c3.4,2.8,8.7,5,12.6,6.2
			c-2.2,40-6.2,51.5-30.2,51.5h-57.4c-24.4,0-31.4-5.3-31.4-27.2v-52.6c-12.3,5.9-24.9,11.5-37.5,17.1c-0.6-3.4-3.4-7.6-5.3-10.6
			c14-5.9,28.6-12.6,42.8-19.6v-81.8H650v75c31.1-16.2,60.2-33.3,79.2-49.3l10.4,10.4c-23,17.6-55.7,35.6-89.6,52.4v59.4
			c0,10.9,3.1,13.7,18.2,13.7H725z"/>
		<path id="XMLID_10_" class="st4" d="M961,209.8c19,25.2,50.7,45.9,83.2,55.4c-3.1,2.8-7,7.8-9,11.2c-35-12.3-69.4-36.7-89.3-66.6
			h-69.2c-20.7,26-48.2,49-82.9,65.5c-1.7-3.1-5.9-7.8-8.7-10.4c30.5-14,55.4-33.3,74.5-55.2h-66.9v-12.3h77
			c8.7-11.5,16-23.5,22.1-35.6h-81.5v-12.3h87.1c7.6-17.6,12-35,14.6-52.1l13.7,1.7c-2.8,16.2-7.3,33.3-14,50.4h39.8
			c10.4-12,22.7-30.8,29.7-43.4l12.3,4.8c-8.4,12.9-18.8,27.4-28.6,38.6h50.7v12.3H906.7c-5.9,12-12.6,24.1-20.7,35.6h149.8v12.3
			H961z M860.5,147.6c-4.8-9.5-15.7-24.9-25.2-35.8l10.4-5.9c10.1,10.6,21,25.5,25.8,35.3L860.5,147.6z M971.4,335.5
			c18.2,0,21-5.3,22.7-36.4c3.6,2.8,9,4.5,12.9,5.6c-2.5,34.7-7.8,43.1-35.3,43.1h-82.3c-30.8,0-40-4.2-40-24.4v-80.6h121
			c0,0,0,4.2-0.3,6.2c-2.2,31.6-4.8,44.2-9.8,49.3c-3.9,3.6-8.1,5-15.4,5c-7,0.6-22.1,0.3-37.2-0.8c-0.6-3.6-1.7-7.8-3.9-11.2
			c16,1.4,31.6,1.4,35.8,1.4c5.6,0,8.1-0.3,9.8-2c3.1-3.1,5-12.6,6.7-35.6h-93.5v68.3c0,9.5,4.2,12,26,12H971.4z"/>
		<path id="XMLID_14_" class="st4" d="M1135.5,196.4c9,10.4,34.4,44.2,40.6,52.9l-9,10.6c-5.3-10.1-21-33.6-31.6-48.4v139.4h-13.2
			V213.4c-12.6,31.9-30.2,65-46.8,83.7c-1.4-3.6-5-8.7-7.6-11.5c19-20.7,40.6-61,52.4-96h-47.9v-12.9h49.8V128
			c-14.3,3.1-29.4,5.6-42.8,7.8c-0.8-3.1-2.8-7.6-4.5-10.6c31.4-5.3,68.9-13.2,89-22.7l9,10.9c-10.4,4.2-23.2,8.1-37.5,11.5v51.8
			h44.2v12.9h-44.2V196.4z M1288.1,276.4v74.8h-13.2v-72.8l-95.8,14.8l-2.2-12.6l98-15.1V97.8h13.2v165.8l35.8-5.6l2,12.3
			L1288.1,276.4z M1243.3,239.5c-11.2-12-33.6-29.1-52.6-40l8.1-8.1c19,10.6,42,27.2,52.9,38.9L1243.3,239.5z M1248.9,165.6
			c-9.2-11.5-29.7-27.7-46.8-38.4l8.4-8.4c17.6,10.1,37.8,25.8,47.3,37.2L1248.9,165.6z"/>
		<path id="XMLID_19_" class="st4" d="M1445.2,235.3c-12,3.6-24.1,7.6-35.8,11.5V333c0,9.8-2.8,13.4-8.7,16
			c-6.2,2.2-16.8,2.5-35.8,2.2c-0.6-3.4-2.8-8.7-4.5-12.3c14.6,0.3,26.9,0.3,30.2,0c3.9,0,5.6-1.4,5.6-5.6V251
			c-13.4,3.9-26,8.1-37.2,11.5l-4.5-13.2c11.5-3.1,26-7.3,41.7-12v-68h-38.4v-12.9h38.4V97.8h13.2v58.5h33v12.9h-33v64.1
			c11.2-3.4,23-7,34.2-10.4L1445.2,235.3z M1591.3,207.8c-12,37.8-33.3,68.3-59.4,91.8c21.3,18.5,47,32.5,77,40.6
			c-3.4,2.8-6.7,7.8-9,11.5c-30.2-9-56.3-23.8-77.8-43.7c-25.8,20.4-54.9,34.7-84,43.7c-1.4-3.9-5-9.2-7.3-12.3
			c28.3-7.6,56.8-21,81.5-40.6c-21.6-22.1-38.1-49.8-49.6-81.8h-10.1v-12.9h63.3v-47h-69.2v-12.9h69.2V97.8h13.4v46.5h69.7v12.9
			h-69.7v47h50.7l2.8-0.6L1591.3,207.8z M1476.2,217.1c10.4,28.3,26,53.2,46.5,73.6c21.8-19.6,40.3-44.2,51.5-73.6H1476.2z"/>
	</g>
</g>
</svg>
